<svg viewBox="0 0 640 240" xmlns:xlink="http://www.w3.org/1999/xlink" xmlns="http://www.w3.org/2000/svg">
  <defs>
  </defs>
  <rect width="640" height="240" x="0" y="0" fill="#142838" />
  <text height="33%" x="50%" y="83.3333333333333%" fill="#8ff586" text-anchor="middle" alignment-baseline="middle">Cobalt Neon</text>
  <rect x="0" y="0" width="80" height="80" fill="#142631" class="Black-fill" />
  <rect x="80" y="0" width="80" height="80" fill="#ff2320" class="Red-fill" />
  <rect x="160" y="0" width="80" height="80" fill="#3ba5ff" class="Green-fill" />
  <rect x="240" y="0" width="80" height="80" fill="#e9e75c" class="Yellow-fill" />
  <rect x="320" y="0" width="80" height="80" fill="#8ff586" class="Blue-fill" />
  <rect x="400" y="0" width="80" height="80" fill="#781aa0" class="Purple-fill" />
  <rect x="480" y="0" width="80" height="80" fill="#8ff586" class="Cyan-fill" />
  <rect x="560" y="0" width="80" height="80" fill="#ba46b2" class="White-fill" />
  <rect x="0" y="80" width="80" height="80" fill="#fff688" class="BrightBlack-fill" />
  <rect x="80" y="80" width="80" height="80" fill="#d4312e" class="BrightRed-fill" />
  <rect x="160" y="80" width="80" height="80" fill="#8ff586" class="BrightGreen-fill" />
  <rect x="240" y="80" width="80" height="80" fill="#e9f06d" class="BrightYellow-fill" />
  <rect x="320" y="80" width="80" height="80" fill="#3c7dd2" class="BrightBlue-fill" />
  <rect x="400" y="80" width="80" height="80" fill="#8230a7" class="BrightPurple-fill" />
  <rect x="480" y="80" width="80" height="80" fill="#6cbc67" class="BrightCyan-fill" />
  <rect x="560" y="80" width="80" height="80" fill="#8ff586" class="BrightWhite-fill" />
</svg>