<svg viewBox="0 0 640 240" xmlns:xlink="http://www.w3.org/1999/xlink" xmlns="http://www.w3.org/2000/svg">
  <defs>
  </defs>
  <rect width="640" height="240" x="0" y="0" fill="#060606" />
  <text height="33%" x="50%" y="83.3333333333333%" fill="#c8c1c1" text-anchor="middle" alignment-baseline="middle">Konsolas</text>
  <rect x="0" y="0" width="80" height="80" fill="#000000" class="Black-fill" />
  <rect x="80" y="0" width="80" height="80" fill="#aa1717" class="Red-fill" />
  <rect x="160" y="0" width="80" height="80" fill="#18b218" class="Green-fill" />
  <rect x="240" y="0" width="80" height="80" fill="#ebae1f" class="Yellow-fill" />
  <rect x="320" y="0" width="80" height="80" fill="#2323a5" class="Blue-fill" />
  <rect x="400" y="0" width="80" height="80" fill="#ad1edc" class="Purple-fill" />
  <rect x="480" y="0" width="80" height="80" fill="#42b0c8" class="Cyan-fill" />
  <rect x="560" y="0" width="80" height="80" fill="#c8c1c1" class="White-fill" />
  <rect x="0" y="80" width="80" height="80" fill="#7b716e" class="BrightBlack-fill" />
  <rect x="80" y="80" width="80" height="80" fill="#ff4141" class="BrightRed-fill" />
  <rect x="160" y="80" width="80" height="80" fill="#5fff5f" class="BrightGreen-fill" />
  <rect x="240" y="80" width="80" height="80" fill="#ffff55" class="BrightYellow-fill" />
  <rect x="320" y="80" width="80" height="80" fill="#4b4bff" class="BrightBlue-fill" />
  <rect x="400" y="80" width="80" height="80" fill="#ff54ff" class="BrightPurple-fill" />
  <rect x="480" y="80" width="80" height="80" fill="#69ffff" class="BrightCyan-fill" />
  <rect x="560" y="80" width="80" height="80" fill="#ffffff" class="BrightWhite-fill" />
</svg>