<svg viewBox="0 0 640 240" xmlns:xlink="http://www.w3.org/1999/xlink" xmlns="http://www.w3.org/2000/svg">
  <defs>
  </defs>
  <rect width="640" height="240" x="0" y="0" fill="#1f1726" />
  <text height="33%" x="50%" y="83.3333333333333%" fill="#dafaff" text-anchor="middle" alignment-baseline="middle">WildCherry</text>
  <rect x="0" y="0" width="80" height="80" fill="#000507" class="Black-fill" />
  <rect x="80" y="0" width="80" height="80" fill="#d94085" class="Red-fill" />
  <rect x="160" y="0" width="80" height="80" fill="#2ab250" class="Green-fill" />
  <rect x="240" y="0" width="80" height="80" fill="#ffd16f" class="Yellow-fill" />
  <rect x="320" y="0" width="80" height="80" fill="#883cdc" class="Blue-fill" />
  <rect x="400" y="0" width="80" height="80" fill="#ececec" class="Purple-fill" />
  <rect x="480" y="0" width="80" height="80" fill="#c1b8b7" class="Cyan-fill" />
  <rect x="560" y="0" width="80" height="80" fill="#fff8de" class="White-fill" />
  <rect x="0" y="80" width="80" height="80" fill="#009cc9" class="BrightBlack-fill" />
  <rect x="80" y="80" width="80" height="80" fill="#da6bac" class="BrightRed-fill" />
  <rect x="160" y="80" width="80" height="80" fill="#f4dca5" class="BrightGreen-fill" />
  <rect x="240" y="80" width="80" height="80" fill="#eac066" class="BrightYellow-fill" />
  <rect x="320" y="80" width="80" height="80" fill="#308cba" class="BrightBlue-fill" />
  <rect x="400" y="80" width="80" height="80" fill="#ae636b" class="BrightPurple-fill" />
  <rect x="480" y="80" width="80" height="80" fill="#ff919d" class="BrightCyan-fill" />
  <rect x="560" y="80" width="80" height="80" fill="#e4838d" class="BrightWhite-fill" />
</svg>