<svg viewBox="0 0 640 240" xmlns:xlink="http://www.w3.org/1999/xlink" xmlns="http://www.w3.org/2000/svg">
  <defs>
  </defs>
  <rect width="640" height="240" x="0" y="0" fill="#2b2a27" />
  <text height="33%" x="50%" y="83.3333333333333%" fill="#ede0ce" text-anchor="middle" alignment-baseline="middle">Doom Peacock</text>
  <rect x="0" y="0" width="80" height="80" fill="#1c1f24" class="Black-fill" />
  <rect x="80" y="0" width="80" height="80" fill="#cb4b16" class="Red-fill" />
  <rect x="160" y="0" width="80" height="80" fill="#26a6a6" class="Green-fill" />
  <rect x="240" y="0" width="80" height="80" fill="#bcd42a" class="Yellow-fill" />
  <rect x="320" y="0" width="80" height="80" fill="#2a6cc6" class="Blue-fill" />
  <rect x="400" y="0" width="80" height="80" fill="#a9a1e1" class="Purple-fill" />
  <rect x="480" y="0" width="80" height="80" fill="#5699af" class="Cyan-fill" />
  <rect x="560" y="0" width="80" height="80" fill="#ede0ce" class="White-fill" />
  <rect x="0" y="80" width="80" height="80" fill="#2b2a27" class="BrightBlack-fill" />
  <rect x="80" y="80" width="80" height="80" fill="#ff5d38" class="BrightRed-fill" />
  <rect x="160" y="80" width="80" height="80" fill="#98be65" class="BrightGreen-fill" />
  <rect x="240" y="80" width="80" height="80" fill="#e6f972" class="BrightYellow-fill" />
  <rect x="320" y="80" width="80" height="80" fill="#51afef" class="BrightBlue-fill" />
  <rect x="400" y="80" width="80" height="80" fill="#c678dd" class="BrightPurple-fill" />
  <rect x="480" y="80" width="80" height="80" fill="#46d9ff" class="BrightCyan-fill" />
  <rect x="560" y="80" width="80" height="80" fill="#dfdfdf" class="BrightWhite-fill" />
</svg>