<svg viewBox="0 0 640 240" xmlns:xlink="http://www.w3.org/1999/xlink" xmlns="http://www.w3.org/2000/svg">
  <defs>
  </defs>
  <rect width="640" height="240" x="0" y="0" fill="#323232" />
  <text height="33%" x="50%" y="83.3333333333333%" fill="#ffffff" text-anchor="middle" alignment-baseline="middle">idleToes</text>
  <rect x="0" y="0" width="80" height="80" fill="#323232" class="Black-fill" />
  <rect x="80" y="0" width="80" height="80" fill="#d25252" class="Red-fill" />
  <rect x="160" y="0" width="80" height="80" fill="#7fe173" class="Green-fill" />
  <rect x="240" y="0" width="80" height="80" fill="#ffc66d" class="Yellow-fill" />
  <rect x="320" y="0" width="80" height="80" fill="#4099ff" class="Blue-fill" />
  <rect x="400" y="0" width="80" height="80" fill="#f680ff" class="Purple-fill" />
  <rect x="480" y="0" width="80" height="80" fill="#bed6ff" class="Cyan-fill" />
  <rect x="560" y="0" width="80" height="80" fill="#eeeeec" class="White-fill" />
  <rect x="0" y="80" width="80" height="80" fill="#535353" class="BrightBlack-fill" />
  <rect x="80" y="80" width="80" height="80" fill="#f07070" class="BrightRed-fill" />
  <rect x="160" y="80" width="80" height="80" fill="#9dff91" class="BrightGreen-fill" />
  <rect x="240" y="80" width="80" height="80" fill="#ffe48b" class="BrightYellow-fill" />
  <rect x="320" y="80" width="80" height="80" fill="#5eb7f7" class="BrightBlue-fill" />
  <rect x="400" y="80" width="80" height="80" fill="#ff9dff" class="BrightPurple-fill" />
  <rect x="480" y="80" width="80" height="80" fill="#dcf4ff" class="BrightCyan-fill" />
  <rect x="560" y="80" width="80" height="80" fill="#ffffff" class="BrightWhite-fill" />
</svg>