<svg viewBox="0 0 640 240" xmlns:xlink="http://www.w3.org/1999/xlink" xmlns="http://www.w3.org/2000/svg">
  <defs>
  </defs>
  <rect width="640" height="240" x="0" y="0" fill="#120b0d" />
  <text height="33%" x="50%" y="83.3333333333333%" fill="#f7d66a" text-anchor="middle" alignment-baseline="middle">MonaLisa</text>
  <rect x="0" y="0" width="80" height="80" fill="#351b0e" class="Black-fill" />
  <rect x="80" y="0" width="80" height="80" fill="#9b291c" class="Red-fill" />
  <rect x="160" y="0" width="80" height="80" fill="#636232" class="Green-fill" />
  <rect x="240" y="0" width="80" height="80" fill="#c36e28" class="Yellow-fill" />
  <rect x="320" y="0" width="80" height="80" fill="#515c5d" class="Blue-fill" />
  <rect x="400" y="0" width="80" height="80" fill="#9b1d29" class="Purple-fill" />
  <rect x="480" y="0" width="80" height="80" fill="#588056" class="Cyan-fill" />
  <rect x="560" y="0" width="80" height="80" fill="#f7d75c" class="White-fill" />
  <rect x="0" y="80" width="80" height="80" fill="#874228" class="BrightBlack-fill" />
  <rect x="80" y="80" width="80" height="80" fill="#ff4331" class="BrightRed-fill" />
  <rect x="160" y="80" width="80" height="80" fill="#b4b264" class="BrightGreen-fill" />
  <rect x="240" y="80" width="80" height="80" fill="#ff9566" class="BrightYellow-fill" />
  <rect x="320" y="80" width="80" height="80" fill="#9eb2b4" class="BrightBlue-fill" />
  <rect x="400" y="80" width="80" height="80" fill="#ff5b6a" class="BrightPurple-fill" />
  <rect x="480" y="80" width="80" height="80" fill="#8acd8f" class="BrightCyan-fill" />
  <rect x="560" y="80" width="80" height="80" fill="#ffe598" class="BrightWhite-fill" />
</svg>