<svg viewBox="0 0 640 240" xmlns:xlink="http://www.w3.org/1999/xlink" xmlns="http://www.w3.org/2000/svg">
  <defs>
  </defs>
  <rect width="640" height="240" x="0" y="0" fill="#141515" />
  <text height="33%" x="50%" y="83.3333333333333%" fill="#e0cfc2" text-anchor="middle" alignment-baseline="middle">kurokula</text>
  <rect x="0" y="0" width="80" height="80" fill="#333333" class="Black-fill" />
  <rect x="80" y="0" width="80" height="80" fill="#c35a52" class="Red-fill" />
  <rect x="160" y="0" width="80" height="80" fill="#78b3a9" class="Green-fill" />
  <rect x="240" y="0" width="80" height="80" fill="#e1b917" class="Yellow-fill" />
  <rect x="320" y="0" width="80" height="80" fill="#5c91dd" class="Blue-fill" />
  <rect x="400" y="0" width="80" height="80" fill="#8b79a6" class="Purple-fill" />
  <rect x="480" y="0" width="80" height="80" fill="#867268" class="Cyan-fill" />
  <rect x="560" y="0" width="80" height="80" fill="#e0cfc2" class="White-fill" />
  <rect x="0" y="80" width="80" height="80" fill="#515151" class="BrightBlack-fill" />
  <rect x="80" y="80" width="80" height="80" fill="#ffc34c" class="BrightRed-fill" />
  <rect x="160" y="80" width="80" height="80" fill="#afffa5" class="BrightGreen-fill" />
  <rect x="240" y="80" width="80" height="80" fill="#fff700" class="BrightYellow-fill" />
  <rect x="320" y="80" width="80" height="80" fill="#90dbff" class="BrightBlue-fill" />
  <rect x="400" y="80" width="80" height="80" fill="#ad93ff" class="BrightPurple-fill" />
  <rect x="480" y="80" width="80" height="80" fill="#ffcdb6" class="BrightCyan-fill" />
  <rect x="560" y="80" width="80" height="80" fill="#ffffff" class="BrightWhite-fill" />
</svg>