<svg viewBox="0 0 640 240" xmlns:xlink="http://www.w3.org/1999/xlink" xmlns="http://www.w3.org/2000/svg">
  <defs>
  </defs>
  <rect width="640" height="240" x="0" y="0" fill="#000000" />
  <text height="33%" x="50%" y="83.3333333333333%" fill="#ffffff" text-anchor="middle" alignment-baseline="middle">UltraDark</text>
  <rect x="0" y="0" width="80" height="80" fill="#000000" class="Black-fill" />
  <rect x="80" y="0" width="80" height="80" fill="#f07178" class="Red-fill" />
  <rect x="160" y="0" width="80" height="80" fill="#c3e88d" class="Green-fill" />
  <rect x="240" y="0" width="80" height="80" fill="#ffcb6b" class="Yellow-fill" />
  <rect x="320" y="0" width="80" height="80" fill="#82aaff" class="Blue-fill" />
  <rect x="400" y="0" width="80" height="80" fill="#c792ea" class="Purple-fill" />
  <rect x="480" y="0" width="80" height="80" fill="#89ddff" class="Cyan-fill" />
  <rect x="560" y="0" width="80" height="80" fill="#cccccc" class="White-fill" />
  <rect x="0" y="80" width="80" height="80" fill="#333333" class="BrightBlack-fill" />
  <rect x="80" y="80" width="80" height="80" fill="#f6a9ae" class="BrightRed-fill" />
  <rect x="160" y="80" width="80" height="80" fill="#dbf1ba" class="BrightGreen-fill" />
  <rect x="240" y="80" width="80" height="80" fill="#ffdfa6" class="BrightYellow-fill" />
  <rect x="320" y="80" width="80" height="80" fill="#b4ccff" class="BrightBlue-fill" />
  <rect x="400" y="80" width="80" height="80" fill="#ddbdf2" class="BrightPurple-fill" />
  <rect x="480" y="80" width="80" height="80" fill="#b8eaff" class="BrightCyan-fill" />
  <rect x="560" y="80" width="80" height="80" fill="#ffffff" class="BrightWhite-fill" />
</svg>