<svg viewBox="0 0 640 240" xmlns:xlink="http://www.w3.org/1999/xlink" xmlns="http://www.w3.org/2000/svg">
  <defs>
  </defs>
  <rect width="640" height="240" x="0" y="0" fill="#29283b" />
  <text height="33%" x="50%" y="83.3333333333333%" fill="#b3b0d6" text-anchor="middle" alignment-baseline="middle">Whimsy</text>
  <rect x="0" y="0" width="80" height="80" fill="#535178" class="Black-fill" />
  <rect x="80" y="0" width="80" height="80" fill="#ef6487" class="Red-fill" />
  <rect x="160" y="0" width="80" height="80" fill="#5eca89" class="Green-fill" />
  <rect x="240" y="0" width="80" height="80" fill="#fdd877" class="Yellow-fill" />
  <rect x="320" y="0" width="80" height="80" fill="#65aef7" class="Blue-fill" />
  <rect x="400" y="0" width="80" height="80" fill="#aa7ff0" class="Purple-fill" />
  <rect x="480" y="0" width="80" height="80" fill="#43c1be" class="Cyan-fill" />
  <rect x="560" y="0" width="80" height="80" fill="#ffffff" class="White-fill" />
  <rect x="0" y="80" width="80" height="80" fill="#535178" class="BrightBlack-fill" />
  <rect x="80" y="80" width="80" height="80" fill="#ef6487" class="BrightRed-fill" />
  <rect x="160" y="80" width="80" height="80" fill="#5eca89" class="BrightGreen-fill" />
  <rect x="240" y="80" width="80" height="80" fill="#fdd877" class="BrightYellow-fill" />
  <rect x="320" y="80" width="80" height="80" fill="#65aef7" class="BrightBlue-fill" />
  <rect x="400" y="80" width="80" height="80" fill="#aa7ff0" class="BrightPurple-fill" />
  <rect x="480" y="80" width="80" height="80" fill="#43c1be" class="BrightCyan-fill" />
  <rect x="560" y="80" width="80" height="80" fill="#ffffff" class="BrightWhite-fill" />
</svg>