<?xml version="1.0" encoding="utf-8"?>
<svg viewBox="0 0 640 160" width="320" xmlns:xlink="http://www.w3.org/1999/xlink" xmlns="http://www.w3.org/2000/svg">
  <rect x="0" y="0" class="ansi0-fill" width="80" height="80" />
  <rect x="80" y="0" class="ansi1-fill" width="80" height="80" />
  <rect x="160" y="0" class="ansi2-fill" width="80" height="80" />
  <rect x="240" y="0" class="ansi3-fill" width="80" height="80" />
  <rect x="320" y="0" class="ansi4-fill" width="80" height="80" />
  <rect x="400" y="0" class="ansi5-fill" width="80" height="80" />
  <rect x="480" y="0" class="ansi6-fill" width="80" height="80" />
  <rect x="560" y="0" class="ansi7-fill" width="80" height="80" />
  <rect x="0" y="80" class="ansi8-fill" width="80" height="80" />
  <rect x="80" y="80" class="ansi9-fill" width="80" height="80" />
  <rect x="160" y="80" class="ansi10-fill" width="80" height="80" />
  <rect x="240" y="80" class="ansi11-fill" width="80" height="80" />
  <rect x="320" y="80" class="ansi12-fill" width="80" height="80" />
  <rect x="400" y="80" class="ansi13-fill" width="80" height="80" />
  <rect x="480" y="80" class="ansi14-fill" width="80" height="80" />
  <rect x="560" y="80" class="ansi15-fill" width="80" height="80" />
</svg>