<?xml version="1.0" encoding="utf-8"?>
<svg viewBox="0 0 640 640" width="320" xmlns:xlink="http://www.w3.org/1999/xlink" xmlns="http://www.w3.org/2000/svg">
  <rect x="-20" y="-20" class="ansi15-fill" width="680" height="680" />
  <rect x="0" y="0" class="ansi14-fill" width="640" height="640" />
  <rect x="20" y="20" class="ansi13-fill" width="600" height="600" />
  <rect x="40" y="40" class="ansi12-fill" width="560" height="560" />
  <rect x="60" y="60" class="ansi11-fill" width="520" height="520" />
  <rect x="80" y="80" class="ansi10-fill" width="480" height="480" />
  <rect x="100" y="100" class="ansi9-fill" width="440" height="440" />
  <rect x="120" y="120" class="ansi8-fill" width="400" height="400" />
  <rect x="140" y="140" class="ansi7-fill" width="360" height="360" />
  <rect x="160" y="160" class="ansi6-fill" width="320" height="320" />
  <rect x="180" y="180" class="ansi5-fill" width="280" height="280" />
  <rect x="200" y="200" class="ansi4-fill" width="240" height="240" />
  <rect x="220" y="220" class="ansi3-fill" width="200" height="200" />
  <rect x="240" y="240" class="ansi2-fill" width="160" height="160" />
  <rect x="260" y="260" class="ansi1-fill" width="120" height="120" />
  <rect x="280" y="280" class="ansi0-fill" width="80" height="80" />
</svg>