<?xml version="1.0" encoding="utf-8"?>
<svg viewBox="0 0 640 240" class="background-fill" xmlns:xlink="http://www.w3.org/1999/xlink" xmlns="http://www.w3.org/2000/svg">
  <defs>
    <style type="text/css">@import url('https://4bitcss.com/Misterioso.css')</style>
    <style type="text/css">@import url('https://fonts.googleapis.com/css?family=Abel')</style>
  </defs>
  <rect width="640" height="80" x="0" y="0" class="background-fill" />
  <text x="50%" y="16.5%" class="foreground-fill" text-anchor="middle" alignment-baseline="middle" style="font-family: 'Abel';">Misterioso</text>
  <rect x="1" y="80" class="ansi0-fill" fill="Black" width="80" height="80" />
  <rect x="81" y="80" class="ansi1-fill" fill="Red" width="80" height="80" />
  <rect x="161" y="80" class="ansi2-fill" fill="Green" width="80" height="80" />
  <rect x="241" y="80" class="ansi3-fill" fill="Yellow" width="80" height="80" />
  <rect x="321" y="80" class="ansi4-fill" fill="Blue" width="80" height="80" />
  <rect x="401" y="80" class="ansi5-fill" fill="Purple" width="80" height="80" />
  <rect x="481" y="80" class="ansi6-fill" fill="Cyan" width="80" height="80" />
  <rect x="561" y="80" class="ansi7-fill" fill="White" width="80" height="80" />
  <rect x="1" y="160" class="ansi8-fill" fill="BrightBlack" width="80" height="80" />
  <rect x="81" y="160" class="ansi9-fill" fill="BrightRed" width="80" height="80" />
  <rect x="161" y="160" class="ansi10-fill" fill="BrightGreen" width="80" height="80" />
  <rect x="241" y="160" class="ansi11-fill" fill="BrightYellow" width="80" height="80" />
  <rect x="321" y="160" class="ansi12-fill" fill="BrightBlue" width="80" height="80" />
  <rect x="401" y="160" class="ansi13-fill" fill="BrightPurple" width="80" height="80" />
  <rect x="481" y="160" class="ansi14-fill" fill="BrightCyan" width="80" height="80" />
  <rect x="561" y="160" class="ansi15-fill" fill="BrightWhite" width="80" height="80" />
</svg>
