<svg viewBox="0 0 640 240" xmlns:xlink="http://www.w3.org/1999/xlink" xmlns="http://www.w3.org/2000/svg">
  <defs>
  </defs>
  <rect width="640" height="240" x="0" y="0" fill="#1b1d1e" />
  <text height="33%" x="50%" y="83.3333333333333%" fill="#e3e3e3" text-anchor="middle" alignment-baseline="middle">Spiderman</text>
  <rect x="0" y="0" width="80" height="80" fill="#1b1d1e" class="Black-fill" />
  <rect x="80" y="0" width="80" height="80" fill="#e60813" class="Red-fill" />
  <rect x="160" y="0" width="80" height="80" fill="#e22928" class="Green-fill" />
  <rect x="240" y="0" width="80" height="80" fill="#e24756" class="Yellow-fill" />
  <rect x="320" y="0" width="80" height="80" fill="#2c3fff" class="Blue-fill" />
  <rect x="400" y="0" width="80" height="80" fill="#2435db" class="Purple-fill" />
  <rect x="480" y="0" width="80" height="80" fill="#3256ff" class="Cyan-fill" />
  <rect x="560" y="0" width="80" height="80" fill="#fffef6" class="White-fill" />
  <rect x="0" y="80" width="80" height="80" fill="#505354" class="BrightBlack-fill" />
  <rect x="80" y="80" width="80" height="80" fill="#ff0325" class="BrightRed-fill" />
  <rect x="160" y="80" width="80" height="80" fill="#ff3338" class="BrightGreen-fill" />
  <rect x="240" y="80" width="80" height="80" fill="#fe3a35" class="BrightYellow-fill" />
  <rect x="320" y="80" width="80" height="80" fill="#1d50ff" class="BrightBlue-fill" />
  <rect x="400" y="80" width="80" height="80" fill="#747cff" class="BrightPurple-fill" />
  <rect x="480" y="80" width="80" height="80" fill="#6184ff" class="BrightCyan-fill" />
  <rect x="560" y="80" width="80" height="80" fill="#fffff9" class="BrightWhite-fill" />
</svg>