<svg viewBox="0 0 640 240" xmlns:xlink="http://www.w3.org/1999/xlink" xmlns="http://www.w3.org/2000/svg">
  <defs>
  </defs>
  <rect width="640" height="240" x="0" y="0" fill="#1a1818" />
  <text height="33%" x="50%" y="83.3333333333333%" fill="#c9c9c9" text-anchor="middle" alignment-baseline="middle">Sundried</text>
  <rect x="0" y="0" width="80" height="80" fill="#302b2a" class="Black-fill" />
  <rect x="80" y="0" width="80" height="80" fill="#a7463d" class="Red-fill" />
  <rect x="160" y="0" width="80" height="80" fill="#587744" class="Green-fill" />
  <rect x="240" y="0" width="80" height="80" fill="#9d602a" class="Yellow-fill" />
  <rect x="320" y="0" width="80" height="80" fill="#485b98" class="Blue-fill" />
  <rect x="400" y="0" width="80" height="80" fill="#864651" class="Purple-fill" />
  <rect x="480" y="0" width="80" height="80" fill="#9c814f" class="Cyan-fill" />
  <rect x="560" y="0" width="80" height="80" fill="#c9c9c9" class="White-fill" />
  <rect x="0" y="80" width="80" height="80" fill="#4d4e48" class="BrightBlack-fill" />
  <rect x="80" y="80" width="80" height="80" fill="#aa000c" class="BrightRed-fill" />
  <rect x="160" y="80" width="80" height="80" fill="#128c21" class="BrightGreen-fill" />
  <rect x="240" y="80" width="80" height="80" fill="#fc6a21" class="BrightYellow-fill" />
  <rect x="320" y="80" width="80" height="80" fill="#7999f7" class="BrightBlue-fill" />
  <rect x="400" y="80" width="80" height="80" fill="#fd8aa1" class="BrightPurple-fill" />
  <rect x="480" y="80" width="80" height="80" fill="#fad484" class="BrightCyan-fill" />
  <rect x="560" y="80" width="80" height="80" fill="#ffffff" class="BrightWhite-fill" />
</svg>